<mxfile host="app.diagrams.net" modified="2024-02-26T18:37:03.844Z" agent="Mozilla/5.0 (Windows NT 10.0; Win64; x64) AppleWebKit/537.36 (KHTML, like Gecko) Chrome/120.0.0.0 Safari/537.36" version="23.1.6" etag="8QWLqDq4_6BYQS1Uwm2F" type="github">
  <diagram name="PÃ¡gina-1" id="RK_8RDVSZSXP1j9jqIaj">
    <mxGraphModel>
      <root>
        <mxCell id="0" />
        <mxCell id="1" parent="0" />
      </root>
    </mxGraphModel>
  </diagram>
</mxfile>
